<?xml version="1.0" encoding="utf-8"?>
<!-- Generator: Adobe Illustrator 22.1.0, SVG Export Plug-In . SVG Version: 6.00 Build 0)  -->
<svg version="1.1" id="Layer_1" xmlns="http://www.w3.org/2000/svg" xmlns:xlink="http://www.w3.org/1999/xlink" x="0px" y="0px"
	 viewBox="0 0 500 500" style="enable-background:new 0 0 500 500;" xml:space="preserve">
<style type="text/css">
	.st0{fill:#222338;}
	.st1{opacity:0.3;fill:#1D0E35;}
	.st2{enable-background:new    ;}
	.st3{fill:#E5E3E8;}
	.st4{fill:#D4CED8;}
	.st5{fill:#E0DDE1;}
	.st6{fill:#F1F1F1;}
	.st7{fill:url(#SVGID_1_);}
	.st8{fill:#1F0159;}
	.st9{fill:#3D2F43;}
	.st10{fill:#10191B;}
	.st11{fill:#242A31;}
	.st12{opacity:0.3;}
	.st13{fill:#50298A;}
	.st14{fill:#693AB0;}
	.st15{fill:#7350BA;}
	.st16{fill:#8125BB;}
	.st17{fill:#AC44EE;}
	.st18{fill:#C574F7;}
	.st19{fill:#FFB700;}
	.st20{fill:#FFC400;}
	.st21{fill:#FFDE38;}
	.st22{fill:#F9F7FC;}
	.st23{fill:#F5F3FB;}
	.st24{opacity:0.2;}
	.st25{fill:#828CC0;}
	.st26{fill:#FFFFFF;}
	.st27{fill:#FFD438;}
	.st28{opacity:0.3;fill:#2A1649;}
	.st29{fill:#0D889F;}
	.st30{fill:#A89317;}
	.st31{clip-path:url(#SVGID_3_);}
	.st32{clip-path:url(#SVGID_5_);enable-background:new    ;}
	.st33{clip-path:url(#SVGID_7_);enable-background:new    ;}
	.st34{clip-path:url(#SVGID_9_);enable-background:new    ;}
	.st35{fill:#0E8FA7;}
	.st36{clip-path:url(#SVGID_11_);}
	.st37{clip-path:url(#SVGID_13_);enable-background:new    ;}
	.st38{opacity:0.3;fill:#190D2B;}
	.st39{clip-path:url(#SVGID_15_);enable-background:new    ;}
	.st40{clip-path:url(#SVGID_17_);}
	.st41{fill:#251B29;}
	.st42{clip-path:url(#SVGID_19_);enable-background:new    ;}
	.st43{clip-path:url(#SVGID_21_);}
	.st44{fill:url(#SVGID_22_);}
	.st45{opacity:0.3;fill:#AC44EE;}
	.st46{opacity:0.5;fill:#B7B5BA;}
	.st47{opacity:0.9;fill:#AC44EE;}
	.st48{opacity:0.9;fill:#8B35D2;}
	.st49{opacity:0.9;}
	.st50{fill:#4C1F8C;}
	.st51{fill:#8B35D2;}
	.st52{opacity:0.9;fill:#4C1F8C;}
	.st53{fill:#F3A984;}
	.st54{fill:#6E4CB3;}
	.st55{fill:#8763CD;}
	.st56{fill:#F5A783;}
	.st57{fill:#EE9C76;}
	.st58{fill:#FFBFA2;}
	.st59{fill:#F8B495;}
	.st60{fill:#C99C83;}
	.st61{fill:#B98C74;}
	.st62{opacity:0.3;fill:#211338;}
	.st63{fill:#FF9900;}
	.st64{clip-path:url(#SVGID_24_);enable-background:new    ;}
	.st65{clip-path:url(#SVGID_26_);enable-background:new    ;}
	.st66{clip-path:url(#SVGID_28_);enable-background:new    ;}
	.st67{clip-path:url(#SVGID_30_);enable-background:new    ;}
	.st68{opacity:0.3;fill:#1E1133;}
	.st69{clip-path:url(#SVGID_32_);enable-background:new    ;}
	.st70{clip-path:url(#SVGID_34_);enable-background:new    ;}
	.st71{clip-path:url(#SVGID_36_);enable-background:new    ;}
	.st72{clip-path:url(#SVGID_38_);enable-background:new    ;}
	.st73{clip-path:url(#SVGID_40_);enable-background:new    ;}
	.st74{clip-path:url(#SVGID_42_);enable-background:new    ;}
	.st75{clip-path:url(#SVGID_44_);enable-background:new    ;}
	.st76{clip-path:url(#SVGID_46_);enable-background:new    ;}
	.st77{clip-path:url(#SVGID_48_);enable-background:new    ;}
	.st78{clip-path:url(#SVGID_50_);enable-background:new    ;}
	.st79{clip-path:url(#SVGID_52_);enable-background:new    ;}
	.st80{clip-path:url(#SVGID_54_);enable-background:new    ;}
	.st81{clip-path:url(#SVGID_56_);enable-background:new    ;}
	.st82{clip-path:url(#SVGID_58_);enable-background:new    ;}
	.st83{clip-path:url(#SVGID_60_);enable-background:new    ;}
	.st84{clip-path:url(#SVGID_62_);enable-background:new    ;}
	.st85{clip-path:url(#SVGID_64_);enable-background:new    ;}
	.st86{clip-path:url(#SVGID_66_);enable-background:new    ;}
	.st87{clip-path:url(#SVGID_68_);enable-background:new    ;}
	.st88{clip-path:url(#SVGID_70_);enable-background:new    ;}
	.st89{clip-path:url(#SVGID_72_);enable-background:new    ;}
	.st90{clip-path:url(#SVGID_74_);enable-background:new    ;}
	.st91{clip-path:url(#SVGID_76_);enable-background:new    ;}
	.st92{clip-path:url(#SVGID_78_);enable-background:new    ;}
	.st93{opacity:0.3;fill:#0E0819;}
	.st94{clip-path:url(#SVGID_80_);enable-background:new    ;}
	.st95{clip-path:url(#SVGID_82_);enable-background:new    ;}
	.st96{clip-path:url(#SVGID_84_);enable-background:new    ;}
	.st97{clip-path:url(#SVGID_86_);enable-background:new    ;}
	.st98{clip-path:url(#SVGID_88_);enable-background:new    ;}
	.st99{clip-path:url(#SVGID_90_);enable-background:new    ;}
	.st100{clip-path:url(#SVGID_92_);enable-background:new    ;}
	.st101{clip-path:url(#SVGID_94_);enable-background:new    ;}
	.st102{clip-path:url(#SVGID_96_);enable-background:new    ;}
	.st103{clip-path:url(#SVGID_98_);enable-background:new    ;}
	.st104{clip-path:url(#SVGID_100_);enable-background:new    ;}
	.st105{clip-path:url(#SVGID_102_);enable-background:new    ;}
	.st106{clip-path:url(#SVGID_104_);enable-background:new    ;}
	.st107{clip-path:url(#SVGID_106_);enable-background:new    ;}
	.st108{clip-path:url(#SVGID_108_);enable-background:new    ;}
	.st109{clip-path:url(#SVGID_110_);enable-background:new    ;}
	.st110{clip-path:url(#SVGID_112_);enable-background:new    ;}
	.st111{clip-path:url(#SVGID_114_);enable-background:new    ;}
	.st112{clip-path:url(#SVGID_116_);enable-background:new    ;}
	.st113{clip-path:url(#SVGID_118_);enable-background:new    ;}
	.st114{clip-path:url(#SVGID_120_);enable-background:new    ;}
	.st115{clip-path:url(#SVGID_122_);enable-background:new    ;}
	.st116{clip-path:url(#SVGID_124_);enable-background:new    ;}
	.st117{clip-path:url(#SVGID_126_);enable-background:new    ;}
	.st118{clip-path:url(#SVGID_128_);enable-background:new    ;}
	.st119{clip-path:url(#SVGID_130_);enable-background:new    ;}
	.st120{clip-path:url(#SVGID_132_);enable-background:new    ;}
	.st121{clip-path:url(#SVGID_134_);enable-background:new    ;}
	.st122{clip-path:url(#SVGID_136_);enable-background:new    ;}
	.st123{clip-path:url(#SVGID_138_);enable-background:new    ;}
	.st124{clip-path:url(#SVGID_140_);enable-background:new    ;}
	.st125{clip-path:url(#SVGID_142_);enable-background:new    ;}
	.st126{clip-path:url(#SVGID_144_);enable-background:new    ;}
	.st127{clip-path:url(#SVGID_146_);enable-background:new    ;}
	.st128{clip-path:url(#SVGID_148_);enable-background:new    ;}
	.st129{clip-path:url(#SVGID_150_);enable-background:new    ;}
	.st130{clip-path:url(#SVGID_152_);enable-background:new    ;}
	.st131{clip-path:url(#SVGID_154_);enable-background:new    ;}
	.st132{clip-path:url(#SVGID_156_);enable-background:new    ;}
	.st133{clip-path:url(#SVGID_158_);enable-background:new    ;}
	.st134{clip-path:url(#SVGID_160_);enable-background:new    ;}
	.st135{clip-path:url(#SVGID_162_);enable-background:new    ;}
	.st136{clip-path:url(#SVGID_164_);enable-background:new    ;}
	.st137{clip-path:url(#SVGID_166_);enable-background:new    ;}
	.st138{clip-path:url(#SVGID_168_);enable-background:new    ;}
	.st139{clip-path:url(#SVGID_170_);enable-background:new    ;}
	.st140{clip-path:url(#SVGID_172_);enable-background:new    ;}
	.st141{clip-path:url(#SVGID_174_);enable-background:new    ;}
	.st142{clip-path:url(#SVGID_176_);enable-background:new    ;}
	.st143{clip-path:url(#SVGID_178_);enable-background:new    ;}
	.st144{clip-path:url(#SVGID_180_);enable-background:new    ;}
	.st145{clip-path:url(#SVGID_182_);enable-background:new    ;}
	.st146{clip-path:url(#SVGID_184_);enable-background:new    ;}
	.st147{clip-path:url(#SVGID_186_);enable-background:new    ;}
	.st148{clip-path:url(#SVGID_188_);enable-background:new    ;}
	.st149{clip-path:url(#SVGID_190_);enable-background:new    ;}
	.st150{clip-path:url(#SVGID_192_);enable-background:new    ;}
	.st151{clip-path:url(#SVGID_194_);enable-background:new    ;}
	.st152{clip-path:url(#SVGID_196_);enable-background:new    ;}
	.st153{clip-path:url(#SVGID_198_);enable-background:new    ;}
	.st154{clip-path:url(#SVGID_200_);enable-background:new    ;}
	.st155{clip-path:url(#SVGID_202_);enable-background:new    ;}
	.st156{clip-path:url(#SVGID_204_);enable-background:new    ;}
	.st157{clip-path:url(#SVGID_206_);enable-background:new    ;}
	.st158{clip-path:url(#SVGID_208_);enable-background:new    ;}
	.st159{clip-path:url(#SVGID_210_);enable-background:new    ;}
	.st160{clip-path:url(#SVGID_212_);enable-background:new    ;}
	.st161{clip-path:url(#SVGID_214_);enable-background:new    ;}
	.st162{clip-path:url(#SVGID_216_);enable-background:new    ;}
	.st163{clip-path:url(#SVGID_218_);enable-background:new    ;}
	.st164{clip-path:url(#SVGID_220_);enable-background:new    ;}
	.st165{clip-path:url(#SVGID_222_);enable-background:new    ;}
	.st166{opacity:0.3;fill:#10091E;}
	.st167{clip-path:url(#SVGID_224_);enable-background:new    ;}
	.st168{clip-path:url(#SVGID_226_);enable-background:new    ;}
	.st169{clip-path:url(#SVGID_228_);enable-background:new    ;}
	.st170{clip-path:url(#SVGID_230_);enable-background:new    ;}
	.st171{clip-path:url(#SVGID_232_);enable-background:new    ;}
	.st172{clip-path:url(#SVGID_234_);enable-background:new    ;}
	.st173{clip-path:url(#SVGID_236_);enable-background:new    ;}
	.st174{clip-path:url(#SVGID_238_);enable-background:new    ;}
	.st175{clip-path:url(#SVGID_240_);enable-background:new    ;}
	.st176{clip-path:url(#SVGID_242_);enable-background:new    ;}
	.st177{clip-path:url(#SVGID_244_);enable-background:new    ;}
	.st178{clip-path:url(#SVGID_246_);enable-background:new    ;}
	.st179{clip-path:url(#SVGID_248_);enable-background:new    ;}
	.st180{clip-path:url(#SVGID_250_);enable-background:new    ;}
	.st181{clip-path:url(#SVGID_252_);enable-background:new    ;}
	.st182{clip-path:url(#SVGID_254_);enable-background:new    ;}
	.st183{clip-path:url(#SVGID_256_);enable-background:new    ;}
	.st184{clip-path:url(#SVGID_258_);enable-background:new    ;}
	.st185{clip-path:url(#SVGID_260_);enable-background:new    ;}
	.st186{clip-path:url(#SVGID_262_);enable-background:new    ;}
	.st187{clip-path:url(#SVGID_264_);enable-background:new    ;}
	.st188{clip-path:url(#SVGID_266_);enable-background:new    ;}
	.st189{clip-path:url(#SVGID_268_);enable-background:new    ;}
	.st190{clip-path:url(#SVGID_270_);enable-background:new    ;}
	.st191{clip-path:url(#SVGID_272_);enable-background:new    ;}
	.st192{clip-path:url(#SVGID_274_);enable-background:new    ;}
	.st193{clip-path:url(#SVGID_276_);enable-background:new    ;}
	.st194{clip-path:url(#SVGID_278_);enable-background:new    ;}
	.st195{opacity:0.3;fill:#11091C;}
	.st196{clip-path:url(#SVGID_280_);enable-background:new    ;}
	.st197{clip-path:url(#SVGID_282_);enable-background:new    ;}
	.st198{clip-path:url(#SVGID_284_);enable-background:new    ;}
	.st199{clip-path:url(#SVGID_286_);enable-background:new    ;}
	.st200{clip-path:url(#SVGID_288_);enable-background:new    ;}
	.st201{clip-path:url(#SVGID_290_);enable-background:new    ;}
	.st202{clip-path:url(#SVGID_292_);enable-background:new    ;}
	.st203{clip-path:url(#SVGID_294_);enable-background:new    ;}
	.st204{clip-path:url(#SVGID_296_);enable-background:new    ;}
	.st205{clip-path:url(#SVGID_298_);enable-background:new    ;}
	.st206{clip-path:url(#SVGID_300_);enable-background:new    ;}
	.st207{clip-path:url(#SVGID_302_);enable-background:new    ;}
	.st208{fill:url(#SVGID_303_);}
	.st209{fill:#11091C;}
	.st210{fill:#592B9E;}
	.st211{clip-path:url(#SVGID_305_);enable-background:new    ;}
	.st212{clip-path:url(#SVGID_307_);}
	.st213{clip-path:url(#SVGID_309_);enable-background:new    ;}
	.st214{clip-path:url(#SVGID_311_);}
	.st215{fill:url(#SVGID_312_);}
	.st216{fill:#140B23;}
	.st217{opacity:0.3;fill:#110A1C;}
	.st218{fill:url(#SVGID_313_);}
	.st219{fill:#FFA200;}
	.st220{clip-path:url(#SVGID_315_);enable-background:new    ;}
	.st221{clip-path:url(#SVGID_317_);enable-background:new    ;}
	.st222{clip-path:url(#SVGID_319_);enable-background:new    ;}
	.st223{clip-path:url(#SVGID_321_);enable-background:new    ;}
	.st224{clip-path:url(#SVGID_323_);enable-background:new    ;}
	.st225{clip-path:url(#SVGID_325_);enable-background:new    ;}
	.st226{clip-path:url(#SVGID_327_);enable-background:new    ;}
	.st227{clip-path:url(#SVGID_329_);enable-background:new    ;}
	.st228{clip-path:url(#SVGID_331_);enable-background:new    ;}
	.st229{clip-path:url(#SVGID_333_);enable-background:new    ;}
	.st230{clip-path:url(#SVGID_335_);enable-background:new    ;}
	.st231{clip-path:url(#SVGID_337_);enable-background:new    ;}
	.st232{clip-path:url(#SVGID_339_);enable-background:new    ;}
	.st233{clip-path:url(#SVGID_341_);enable-background:new    ;}
	.st234{clip-path:url(#SVGID_343_);enable-background:new    ;}
	.st235{clip-path:url(#SVGID_345_);enable-background:new    ;}
	.st236{clip-path:url(#SVGID_347_);enable-background:new    ;}
	.st237{clip-path:url(#SVGID_349_);enable-background:new    ;}
	.st238{clip-path:url(#SVGID_351_);enable-background:new    ;}
	.st239{clip-path:url(#SVGID_353_);enable-background:new    ;}
	.st240{clip-path:url(#SVGID_355_);enable-background:new    ;}
	.st241{clip-path:url(#SVGID_357_);enable-background:new    ;}
	.st242{clip-path:url(#SVGID_359_);enable-background:new    ;}
	.st243{clip-path:url(#SVGID_361_);enable-background:new    ;}
	.st244{clip-path:url(#SVGID_363_);enable-background:new    ;}
	.st245{clip-path:url(#SVGID_365_);enable-background:new    ;}
	.st246{clip-path:url(#SVGID_367_);enable-background:new    ;}
	.st247{clip-path:url(#SVGID_369_);enable-background:new    ;}
	.st248{clip-path:url(#SVGID_371_);enable-background:new    ;}
	.st249{clip-path:url(#SVGID_373_);enable-background:new    ;}
	.st250{clip-path:url(#SVGID_375_);enable-background:new    ;}
	.st251{clip-path:url(#SVGID_377_);enable-background:new    ;}
	.st252{clip-path:url(#SVGID_379_);enable-background:new    ;}
	.st253{clip-path:url(#SVGID_381_);enable-background:new    ;}
	.st254{clip-path:url(#SVGID_383_);enable-background:new    ;}
	.st255{clip-path:url(#SVGID_385_);enable-background:new    ;}
	.st256{clip-path:url(#SVGID_387_);enable-background:new    ;}
	.st257{clip-path:url(#SVGID_389_);enable-background:new    ;}
	.st258{clip-path:url(#SVGID_391_);enable-background:new    ;}
	.st259{clip-path:url(#SVGID_393_);enable-background:new    ;}
	.st260{opacity:0.3;fill:#120A1E;}
	.st261{clip-path:url(#SVGID_395_);enable-background:new    ;}
	.st262{clip-path:url(#SVGID_397_);enable-background:new    ;}
	.st263{clip-path:url(#SVGID_399_);enable-background:new    ;}
	.st264{clip-path:url(#SVGID_401_);enable-background:new    ;}
	.st265{clip-path:url(#SVGID_403_);enable-background:new    ;}
	.st266{clip-path:url(#SVGID_405_);enable-background:new    ;}
	.st267{clip-path:url(#SVGID_407_);enable-background:new    ;}
	.st268{clip-path:url(#SVGID_409_);enable-background:new    ;}
	.st269{clip-path:url(#SVGID_411_);enable-background:new    ;}
	.st270{clip-path:url(#SVGID_413_);enable-background:new    ;}
	.st271{clip-path:url(#SVGID_415_);enable-background:new    ;}
	.st272{clip-path:url(#SVGID_417_);enable-background:new    ;}
	.st273{clip-path:url(#SVGID_419_);enable-background:new    ;}
	.st274{clip-path:url(#SVGID_421_);enable-background:new    ;}
	.st275{clip-path:url(#SVGID_423_);enable-background:new    ;}
	.st276{clip-path:url(#SVGID_425_);enable-background:new    ;}
	.st277{clip-path:url(#SVGID_427_);enable-background:new    ;}
	.st278{clip-path:url(#SVGID_429_);enable-background:new    ;}
	.st279{clip-path:url(#SVGID_431_);enable-background:new    ;}
	.st280{clip-path:url(#SVGID_433_);enable-background:new    ;}
	.st281{clip-path:url(#SVGID_435_);enable-background:new    ;}
	.st282{clip-path:url(#SVGID_437_);enable-background:new    ;}
	.st283{clip-path:url(#SVGID_439_);enable-background:new    ;}
	.st284{clip-path:url(#SVGID_441_);enable-background:new    ;}
	.st285{fill:#120A1E;}
	.st286{opacity:0.3;fill:#140B21;}
	.st287{clip-path:url(#SVGID_443_);enable-background:new    ;}
	.st288{clip-path:url(#SVGID_445_);enable-background:new    ;}
	.st289{fill:#C9C9EC;}
	.st290{fill:#B7B7D7;}
	.st291{fill:#E1E1F5;}
	.st292{fill:#DF9B09;}
	.st293{opacity:0.3;fill:#0F0819;}
	.st294{clip-path:url(#SVGID_447_);}
	.st295{clip-path:url(#SVGID_449_);enable-background:new    ;}
	.st296{clip-path:url(#SVGID_451_);enable-background:new    ;}
	.st297{clip-path:url(#SVGID_453_);enable-background:new    ;}
	.st298{clip-path:url(#SVGID_455_);enable-background:new    ;}
	.st299{clip-path:url(#SVGID_457_);enable-background:new    ;}
	.st300{clip-path:url(#SVGID_459_);enable-background:new    ;}
	.st301{clip-path:url(#SVGID_461_);enable-background:new    ;}
	.st302{clip-path:url(#SVGID_463_);enable-background:new    ;}
	.st303{clip-path:url(#SVGID_465_);enable-background:new    ;}
	.st304{clip-path:url(#SVGID_467_);enable-background:new    ;}
	.st305{clip-path:url(#SVGID_469_);enable-background:new    ;}
	.st306{clip-path:url(#SVGID_471_);enable-background:new    ;}
	.st307{clip-path:url(#SVGID_473_);enable-background:new    ;}
	.st308{clip-path:url(#SVGID_475_);enable-background:new    ;}
	.st309{clip-path:url(#SVGID_477_);enable-background:new    ;}
	.st310{clip-path:url(#SVGID_479_);enable-background:new    ;}
	.st311{clip-path:url(#SVGID_481_);enable-background:new    ;}
	.st312{clip-path:url(#SVGID_483_);enable-background:new    ;}
	.st313{fill:#FFE561;}
	.st314{fill:url(#SVGID_484_);}
</style>
<rect y="0" class="st0" width="500" height="500"/>
<g>
	<g>
		<g>
			<g class="st2">
				<g>
					<polygon class="st3" points="400.3,200.3 403.6,198.4 403.1,372.7 399.8,374.6 					"/>
				</g>
				<g>
					<polygon class="st22" points="199.6,84.4 202.9,82.5 403.6,198.4 400.3,200.3 					"/>
				</g>
				<g>
					<polygon class="st23" points="400.3,200.3 399.8,374.6 199.1,258.8 199.6,84.4 					"/>
				</g>
			</g>
		</g>
		<g>
			<polygon class="st15" points="345.3,253 337.9,248.7 337.9,240.2 345.3,244.4 			"/>
			<polygon class="st17" points="345.3,264.6 337.9,260.3 337.9,251.8 345.3,256.1 			"/>
			<polygon class="st21" points="345.3,276.2 337.9,272 337.9,263.4 345.3,267.7 			"/>
			<polygon class="st15" points="395.5,281.9 348.8,255 348.8,246.5 395.5,273.4 			"/>
			<polygon class="st17" points="395.5,293.6 348.8,266.6 348.8,258.1 395.5,285 			"/>
			<polygon class="st21" points="395.5,305.2 348.8,278.3 348.8,269.7 395.5,296.7 			"/>
		</g>
		<g>
			<g>
				<g class="st24">
					<path class="st25" d="M204.6,165v26.6v40.4v26.6l127.2,73.5v-26.6v-40.4v-26.6l-0.1-0.1l0,0l-126.8-73.2l0,0L204.6,165z
						 M205,232.3l11.1,6.4v12.8l-11.1-6.4V232.3z M331.4,251.6l-11.1-6.4v-12.8l11.1,6.4V251.6z M205,165.8l11.1,6.4V185l-11.1-6.4
						V165.8z M273.7,232.1v12.8l-11.1-6.4v-12.8L273.7,232.1z M262.6,251.8V239l11.1,6.4v12.8L262.6,251.8z M285.3,252.1v12.8
						l-11.1-6.4v-12.8L285.3,252.1z M251.1,245.1v-12.8l11.1,6.4v12.8L251.1,245.1z M251.1,231.8V219l11.1,6.4v12.8L251.1,231.8z
						 M285.3,238.7v12.8l-11.1-6.4v-12.8L285.3,238.7z M296.8,258.7v12.8l-11.1-6.4v-12.8L296.8,258.7z M296.8,272v12.8l-11.1-6.4
						v-12.8L296.8,272z M285.3,278.2l-11.1-6.4V259l11.1,6.4V278.2z M273.7,271.5l-11.1-6.4v-12.8l11.1,6.4V271.5z M262.2,264.9
						l-11.1-6.4v-12.8l11.1,6.4V264.9z M239.6,238.5v-12.8l11.1,6.4v12.8L239.6,238.5z M239.6,225.2v-12.8l11.1,6.4v12.8
						L239.6,225.2z M296.8,245.4v12.8l-11.1-6.4V239L296.8,245.4z M308.3,265.4v12.8l-11.1-6.4V259L308.3,265.4z M308.3,278.7v12.8
						l-11.1-6.4v-12.8L308.3,278.7z M239.6,251.8V239l11.1,6.4v12.8L239.6,251.8z M228,231.8V219l11.1,6.4v12.8L228,231.8z
						 M228,218.5v-12.8l11.1,6.4v12.8L228,218.5z M239.6,211.9V199l11.1,6.4v12.8L239.6,211.9z M251.1,205.7l11.1,6.4v12.8
						l-11.1-6.4V205.7z M262.6,212.4l11.1,6.4v12.8l-11.1-6.4V212.4z M274.2,219l11.1,6.4v12.8l-11.1-6.4V219z M285.7,225.7
						l11.1,6.4v12.8l-11.1-6.4V225.7z M297.2,232.3l11.1,6.4v12.8l-11.1-6.4V232.3z M308.3,252.1v12.8l-11.1-6.4v-12.8L308.3,252.1z
						 M319.8,272v12.8l-11.1-6.4v-12.8L319.8,272z M319.8,285.3v12.8l-11.1-6.4v-12.8L319.8,285.3z M228,245.1v-12.8l11.1,6.4v12.8
						L228,245.1z M216.5,225.2v-12.8l11.1,6.4v12.8L216.5,225.2z M216.5,211.9v-12.8l11.1,6.4v12.8L216.5,211.9z M228,205.2v-12.8
						l11.1,6.4v12.8L228,205.2z M228,191.9v-12.8l11.1,6.4v12.8L228,191.9z M239.6,185.7l11.1,6.4V205l-11.1-6.4V185.7z
						 M251.1,192.4l11.1,6.4v12.8l-11.1-6.4V192.4z M262.6,199l11.1,6.4v12.8l-11.1-6.4V199z M274.2,205.7l11.1,6.4v12.8l-11.1-6.4
						V205.7z M285.7,212.4l11.1,6.4v12.8l-11.1-6.4V212.4z M297.2,219l11.1,6.4v12.8l-11.1-6.4V219z M308.7,225.7l11.1,6.4v12.8
						l-11.1-6.4V225.7z M319.8,245.4v12.8l-11.1-6.4V239L319.8,245.4z M319.8,258.7v12.8l-11.1-6.4v-12.8L319.8,258.7z M331.4,278.7
						v12.8l-11.1-6.4v-12.8L331.4,278.7z M331.4,304.8l-11.1-6.4v-12.8l11.1,6.4V304.8z M308.3,292v12.8l-11.1-6.4v-12.8L308.3,292z
						 M296.8,298.1l-11.1-6.4v-12.8l11.1,6.4V298.1z M285.3,291.5l-11.1-6.4v-12.8l11.1,6.4V291.5z M273.7,284.8l-11.1-6.4v-12.8
						l11.1,6.4V284.8z M262.2,278.2l-11.1-6.4V259l11.1,6.4V278.2z M250.7,271.5l-11.1-6.4v-12.8l11.1,6.4V271.5z M239.1,264.9
						l-11.1-6.4v-12.8l11.1,6.4V264.9z M216.5,238.5v-12.8l11.1,6.4v12.8L216.5,238.5z M205,218.5v-12.8l11.1,6.4v12.8L205,218.5z
						 M205,205.2v-12.8l11.1,6.4v12.8L205,205.2z M216.5,198.6v-12.8l11.1,6.4V205L216.5,198.6z M216.5,185.2v-12.8l11.1,6.4v12.8
						L216.5,185.2z M331.4,264.9l-11.1-6.4v-12.8l11.1,6.4V264.9z M331.4,278.2l-11.1-6.4V259l11.1,6.4V278.2z M331.4,318.1
						l-11.1-6.4v-12.8l11.1,6.4V318.1z M319.8,311.5l-11.1-6.4v-12.8l11.1,6.4V311.5z M319.8,312v12.8l-11.1-6.4v-12.8L319.8,312z
						 M308.3,318.1l-11.1-6.4v-12.8l11.1,6.4V318.1z M296.8,311.5l-11.1-6.4v-12.8l11.1,6.4V311.5z M285.3,304.8l-11.1-6.4v-12.8
						l11.1,6.4V304.8z M273.7,298.2l-11.1-6.4v-12.8l11.1,6.4V298.2z M262.2,291.5l-11.1-6.4v-12.8l11.1,6.4V291.5z M250.7,284.8
						l-11.1-6.4v-12.8l11.1,6.4V284.8z M239.1,278.2l-11.1-6.4V259l11.1,6.4V278.2z M227.6,271.5l-11.1-6.4v-12.8l11.1,6.4V271.5z
						 M216.5,251.8V239l11.1,6.4v12.8L216.5,251.8z M205,219l11.1,6.4v12.8l-11.1-6.4V219z M205,179.1l11.1,6.4v12.8l-11.1-6.4
						V179.1z M331.4,331.4l-11.1-6.4v-12.8l11.1,6.4V331.4z M205,258.5v-12.8l11.1,6.4v12.8L205,258.5z"/>
				</g>
				<g>
					<path class="st15" d="M329.6,291c0.1,0,0.2,0,0.3-0.1c0.4-0.2,0.6-0.7,0.4-1.1c-0.8-1.8-8-17.9-12.3-20.5
						c-2.3-1.4-4.4,0.6-6.2,2.3c-1.9,1.8-3.1,2.8-4.2,2.1c-4.3-2.7-8.2-12.5-11.9-22c-4-10.1-7.8-19.7-12.5-22.8
						c-2.6-1.7-5,0.5-7.2,2.5c-2.2,2-3.7,3.2-5.1,2.4c-2.7-1.7-4.9-8.1-7.2-14.8c-3.4-10-7.3-21.3-14.6-24.2
						c-4.8-1.9-9-1.1-12.9,2.5c-3.2,3-5.7,7.6-8.1,12c-4.5,8.2-7.6,13-12.4,10.8c-3.5-1.6-7.3-10.3-8.5-13.6
						c-0.2-0.4-0.7-0.7-1.1-0.5c-0.4,0.2-0.7,0.7-0.5,1.1c0.2,0.5,4.5,12.3,9.4,14.5c3,1.4,5.8,0.7,8.4-2c2.2-2.3,4.1-5.8,6.2-9.5
						c4.7-8.6,9.6-17.5,18.9-13.7c6.6,2.6,10.3,13.6,13.6,23.2c2.5,7.4,4.7,13.7,7.9,15.7c2.5,1.6,5-0.6,7.1-2.5
						c2.3-2,3.7-3.2,5.1-2.3c4.3,2.8,8.1,12.5,11.9,22c4,10.2,7.8,19.8,12.6,22.8c2.3,1.5,4.4-0.5,6.3-2.3c1.8-1.7,3.1-2.8,4.2-2.1
						c3.2,1.9,9.5,14.9,11.6,19.7C328.9,290.8,329.2,291,329.6,291z"/>
				</g>
				<g>
					<polygon class="st17" points="298.9,312.7 319.4,324.5 319.4,287 298.9,275.1 					"/>
					<polygon class="st26" points="268.2,294.9 288.7,306.8 288.7,250.7 268.2,238.8 					"/>
					<polygon class="st27" points="206.7,259.4 227.2,271.3 227.2,236.3 206.7,224.5 					"/>
					<polygon class="st15" points="237.4,277.2 257.9,289 257.9,217.7 237.4,205.9 					"/>
				</g>
			</g>
		</g>
		<g>
			<g>
				<path class="st27" d="M215.9,143.3l-6.5,1.9c4.8,10.2,12.5,19.4,21.1,24.4v-9.4C224.6,156.7,219.3,150.4,215.9,143.3z"/>
				<path class="st27" d="M247.4,156.9c-2.7,6.1-9.3,7.7-16.9,3.3v9.4c11,6.3,20.4,4,24.4-4.8L247.4,156.9z"/>
				<path class="st27" d="M230.6,118v-9.4c-11-6.3-20.4-4-24.4,4.8l7.5,7.9C216.4,115.3,222.9,113.6,230.6,118z"/>
				<path class="st27" d="M212.3,128.6c0-2.8,0.5-5.3,1.4-7.2l-7.5-7.9c-1.3,2.8-2,6.3-2,10.4c0,6.8,2,14.3,5.3,21.3l6.5-1.9
					C213.7,138.5,212.3,133.3,212.3,128.6z"/>
				<path class="st15" d="M245.2,134.9l6.5-1.9c-4.8-10.2-12.5-19.4-21.1-24.4v9.4C236.5,121.5,241.8,127.9,245.2,134.9z"/>
				<path class="st15" d="M248.8,149.7c0,2.8-0.5,5.3-1.4,7.2l7.5,7.9c1.3-2.8,2-6.3,2-10.4c0-6.8-2-14.3-5.3-21.3l-6.5,1.9
					C247.5,139.8,248.8,144.9,248.8,149.7z"/>
			</g>
			<g>
				<g>
					<g>
						<path class="st3" d="M374,247.7l-0.1-0.1l-109.7-63.3l0-52.9l0.1,0.1L374,194.8L374,247.7z M264.3,184.2l109.5,63.2l0-52.6
							l-109.5-63.2L264.3,184.2z"/>
					</g>
					<g>
						<polygon class="st3" points="373.9,203.7 264.2,140.4 264.3,140.2 373.9,203.5 						"/>
					</g>
					<g>
						<rect x="319" y="117.4" transform="matrix(0.5 -0.866 0.866 0.5 3.0327 366.7092)" class="st3" width="0.2" height="126.6"/>
					</g>
					<g>
						<rect x="319" y="126.2" transform="matrix(0.5 -0.866 0.866 0.5 -4.5802 371.1035)" class="st3" width="0.2" height="126.6"/>
					</g>
					<g>
						<rect x="319" y="135" transform="matrix(0.5 -0.866 0.866 0.5 -12.1931 375.4981)" class="st3" width="0.2" height="126.6"/>
					</g>
					<g>
						
							<rect x="319" y="143.8" transform="matrix(0.5 -0.866 0.866 0.5 -19.8056 379.8931)" class="st3" width="0.2" height="126.6"/>
					</g>
					<g>
						<rect x="362.9" y="188.5" class="st3" width="0.2" height="52.7"/>
					</g>
					<g>
						<rect x="351.9" y="182.1" class="st3" width="0.2" height="52.7"/>
					</g>
					<g>
						<rect x="340.9" y="175.8" class="st3" width="0.2" height="52.7"/>
					</g>
					<g>
						<rect x="330" y="169.5" class="st3" width="0.2" height="52.7"/>
					</g>
					<g>
						<rect x="319" y="163.1" class="st3" width="0.2" height="52.7"/>
					</g>
					<g>
						<rect x="308" y="156.8" class="st3" width="0.2" height="52.7"/>
					</g>
					<g>
						<rect x="297.1" y="150.5" class="st3" width="0.2" height="52.7"/>
					</g>
					<g>
						<rect x="286.1" y="144.2" class="st3" width="0.2" height="52.7"/>
					</g>
					<g>
						<rect x="275.2" y="137.8" class="st3" width="0.2" height="52.7"/>
					</g>
				</g>
				<polygon class="st27" points="275.2,190.6 264.3,184.2 264.3,140.3 275.2,146.6 				"/>
				<polygon class="st15" points="291.7,200.1 280.7,193.7 280.7,167.2 291.7,173.5 				"/>
				<polygon class="st15" points="357.5,238 346.5,231.7 346.5,205.2 357.5,211.5 				"/>
				<polygon class="st15" points="324.6,219.1 313.6,212.7 313.6,203.1 324.6,209.5 				"/>
				<polygon class="st27" points="373.9,247.5 362.9,241.2 362.9,219.2 373.9,225.6 				"/>
				<polygon class="st27" points="308.1,209.6 297.2,203.2 297.2,168 308.1,174.4 				"/>
				<polygon class="st27" points="341,228.5 330.1,222.2 330.1,175.3 341,181.7 				"/>
			</g>
		</g>
		<g>
			<g>
				<g>
					<g>
						<path class="st17" d="M365.1,322.7l-12.3,17.5c-11.8-14.6-15.8-34.4-9-44c4.5-6.4,12.3-7.1,21.3-1.9L365.1,322.7z"/>
					</g>
				</g>
				<g>
					<g>
						<path class="st26" d="M365.1,322.7l12.3,31.7c-7.8,0.7-16.8-4.5-24.6-14.2L365.1,322.7z"/>
					</g>
				</g>
				<g>
					<g>
						<path class="st15" d="M365.1,322.7l12.3-17.5c11.8,14.6,15.8,34.4,9,44c-2.3,3.2-5.1,4.9-9,5.2L365.1,322.7z"/>
					</g>
				</g>
				<g>
					<g>
						<path class="st21" d="M365.1,322.7l0-28.4c4.5,2.6,8.4,6,12.3,10.9L365.1,322.7z"/>
					</g>
				</g>
			</g>
		</g>
	</g>
	<g>
		<path class="st28" d="M260.1,327.1c-26.8-15.4-70.1-15.4-96.9,0c-26.8,15.4-26.8,40.5,0,55.9c26.8,15.4,70.1,15.4,96.9,0
			C286.8,367.6,286.8,342.6,260.1,327.1z M238.9,370.8c-15.1,8.7-39.5,8.7-54.6,0c-15.1-8.7-15.1-22.8,0-31.5
			c15.1-8.7,39.5-8.7,54.6,0C254,348,254,362.1,238.9,370.8z"/>
		<g class="st2">
			<g>
				<polygon class="st29" points="247,306 246.9,325.4 228.9,335.9 229,316.4 				"/>
			</g>
			<g>
				<path class="st17" d="M247,306c8.3,4.8,13.6,10,16.6,16.6l-24.6,3.8c-1.7-3.6-5.1-7.1-10-10L247,306z"/>
			</g>
			<g>
				<polygon class="st30" points="263.6,322.6 263.5,342 238.9,345.8 239,326.4 				"/>
			</g>
			<g class="st2">
				<defs>
					<path id="SVGID_2_" class="st2" d="M239,326.4l-0.1,19.4c-1.7-3.6-5.1-7.1-10-10l0.1-19.4C233.9,319.3,237.3,322.7,239,326.4z"
						/>
				</defs>
				<clipPath id="SVGID_1_">
					<use xlink:href="#SVGID_2_"  style="overflow:visible;"/>
				</clipPath>
				<g style="clip-path:url(#SVGID_1_);">
					<path class="st16" d="M239,326.4l-0.1,19.4c-1.7-3.6-5.1-7.1-10-10l0.1-19.4C233.9,319.3,237.3,322.7,239,326.4L239,326.4z"/>
				</g>
			</g>
			<g class="st2">
				<defs>
					<path id="SVGID_4_" class="st2" d="M240.3,332.3l-0.1,19.4c0-2-0.4-4-1.4-5.9l0.1-19.4C239.9,328.3,240.4,330.3,240.3,332.3z"
						/>
				</defs>
				<clipPath id="SVGID_3_">
					<use xlink:href="#SVGID_4_"  style="overflow:visible;"/>
				</clipPath>
				<g style="clip-path:url(#SVGID_3_);enable-background:new    ;">
					<path class="st19" d="M240.3,332.3l-0.1,19.4c0-2-0.4-4-1.4-5.9l0.1-19.4C239.9,328.3,240.4,330.3,240.3,332.3L240.3,332.3z"/>
				</g>
			</g>
			<g class="st2">
				<defs>
					<path id="SVGID_6_" class="st2" d="M163.3,351.5l0.1-19.4c0-5.7,3.7-11.3,11.2-15.7c15-8.7,39.4-8.7,54.5,0l-0.1,19.4
						c-15.1-8.7-39.5-8.7-54.5,0C167,340.2,163.3,345.9,163.3,351.5z"/>
				</defs>
				<use xlink:href="#SVGID_6_"  style="overflow:visible;fill:#693AB0;"/>
				<clipPath id="SVGID_5_">
					<use xlink:href="#SVGID_6_"  style="overflow:visible;"/>
				</clipPath>
				<g class="st32">
					<path class="st14" d="M229,316.4l-0.1,19.4c-15.1-8.7-39.5-8.7-54.5,0c-7.4,4.3-11.2,10-11.2,15.7l0.1-19.4
						c0-5.7,3.7-11.3,11.2-15.7C189.5,307.7,213.9,307.7,229,316.4L229,316.4z"/>
				</g>
			</g>
			<g>
				<path class="st15" d="M247,306l-18,10.5c-15.1-8.7-39.5-8.7-54.5,0c-10,5.8-13.3,14.1-9.9,21.5l-24.4,3.8
					c-9.2-19.7,10.9-40,44.9-45.3C207.9,292.9,230.3,296.4,247,306z"/>
			</g>
			<g class="st2">
				<defs>
					<path id="SVGID_8_" class="st2" d="M138,351.4L138,332c0,3.2,0.7,6.5,2.2,9.8l-0.1,19.4C138.7,357.9,138,354.6,138,351.4z"/>
				</defs>
				<clipPath id="SVGID_7_">
					<use xlink:href="#SVGID_8_"  style="overflow:visible;"/>
				</clipPath>
				<g class="st33">
					<path class="st14" d="M140.3,341.7l-0.1,19.4c-1.5-3.3-2.3-6.6-2.2-9.8L138,332C138,335.2,138.7,338.5,140.3,341.7L140.3,341.7
						z"/>
				</g>
			</g>
			<g>
				<polygon class="st35" points="164.7,337.9 164.6,357.4 140.2,361.2 140.3,341.7 				"/>
			</g>
			<g>
				<path class="st6" d="M192.1,353.8l-6.5,14.1c-11.4-1.8-21.2-5-28.9-9.5c-7.7-4.5-13.4-10.1-16.5-16.7l24.4-3.8
					c1.7,3.7,5.1,7.1,10,10C179.7,350.9,185.7,352.8,192.1,353.8z"/>
			</g>
			<g class="st2">
				<defs>
					<path id="SVGID_10_" class="st2" d="M185.6,367.9l-0.1,19.4c-11.4-1.8-21.2-5-28.9-9.5c-7.7-4.5-13.4-10.1-16.5-16.7l0.1-19.4
						c3.1,6.6,8.7,12.2,16.5,16.7C164.4,362.9,174.2,366.1,185.6,367.9z"/>
				</defs>
				<clipPath id="SVGID_9_">
					<use xlink:href="#SVGID_10_"  style="overflow:visible;"/>
				</clipPath>
				<g style="clip-path:url(#SVGID_9_);">
					<path class="st4" d="M185.6,367.9l-0.1,19.4c-11.4-1.8-21.2-5-28.9-9.5c-7.7-4.5-13.4-10.1-16.5-16.7l0.1-19.4
						c3.1,6.6,8.7,12.2,16.5,16.7C164.4,362.9,174.2,366.1,185.6,367.9L185.6,367.9z"/>
				</g>
			</g>
			<g class="st2">
				<defs>
					<path id="SVGID_12_" class="st2" d="M265.8,332.4l-0.1,19.4c0,16.3-18.8,31.1-47.2,35.5c-11.3,1.8-21.7,1.8-33.1,0l0.1-19.4
						c11.4,1.8,21.7,1.8,33.1,0C247.1,363.5,265.8,348.6,265.8,332.4z"/>
				</defs>
				<clipPath id="SVGID_11_">
					<use xlink:href="#SVGID_12_"  style="overflow:visible;"/>
				</clipPath>
				<g style="clip-path:url(#SVGID_11_);enable-background:new    ;">
					<path class="st19" d="M265.8,332.4l-0.1,19.4c0,16.3-18.8,31.1-47.2,35.5c-11.3,1.8-21.7,1.8-33.1,0l0.1-19.4
						c11.4,1.8,21.7,1.8,33.1,0C247.1,363.5,265.8,348.6,265.8,332.4L265.8,332.4z"/>
				</g>
			</g>
			<g>
				<path class="st27" d="M263.6,322.6c9.2,19.7-10.9,40-44.9,45.3c-11.3,1.8-21.7,1.8-33.1,0l6.5-14.1c12.8,2,27.1,0,37.1-5.8
					c10.1-5.8,13.3-14.1,9.8-21.6L263.6,322.6z"/>
			</g>
		</g>
	</g>
</g>
</svg>
