<?xml version="1.0" encoding="UTF-8" standalone="no"?>
<svg
   viewBox="0 0 60 60"
   version="1.1"
   id="svg12"
   sodipodi:docname="google.svg"
   inkscape:version="1.2.1 (9c6d41e410, 2022-07-14)"
   xmlns:inkscape="http://www.inkscape.org/namespaces/inkscape"
   xmlns:sodipodi="http://sodipodi.sourceforge.net/DTD/sodipodi-0.dtd"
   xmlns="http://www.w3.org/2000/svg"
   xmlns:svg="http://www.w3.org/2000/svg">
  <defs
     id="defs16" />
  <sodipodi:namedview
     id="namedview14"
     pagecolor="#ffffff"
     bordercolor="#000000"
     borderopacity="0.25"
     inkscape:showpageshadow="2"
     inkscape:pageopacity="0.0"
     inkscape:pagecheckerboard="0"
     inkscape:deskcolor="#d1d1d1"
     showgrid="false"
     inkscape:zoom="12.933333"
     inkscape:cx="23.427835"
     inkscape:cy="30"
     inkscape:window-width="1920"
     inkscape:window-height="974"
     inkscape:window-x="-11"
     inkscape:window-y="-11"
     inkscape:window-maximized="1"
     inkscape:current-layer="svg12" />
  <path
     d="M 23.59532,23.800361 V 9.4993608 c 0,-2.0006 0.54704,-3.6261 1.6411,-4.8764 1.0941,-1.2816 2.657,-1.9224 4.6889,-1.9224 2.0319,0 3.5948,0.64081 4.6889,1.9224 1.1253,1.2504 1.688,2.8758 1.688,4.8764 V 23.800361 h 14.114 c 2.0631,0 3.6886,0.56267 4.8764,1.688 1.2191,1.0941 1.8287,2.6414 1.8287,4.642 0,2.0318 -0.60956,3.6104 -1.8287,4.7358 -1.1878,1.1253 -2.8133,1.688 -4.8764,1.688 h -14.114 v 14.254 c 0,2.0318 -0.56267,3.673 -1.688,4.9233 -1.12533,1.2503 -2.6883,1.8756 -4.6889,1.8756 -2.0006,0 -3.5636,-0.62518 -4.6889,-1.8756 -1.0941,-1.2504 -1.6411,-2.8915 -1.6411,-4.9233 v -14.254 H 9.4813196 c -2.0006,0 -3.6261,-0.60956 -4.8764,-1.8287 -1.2191,-1.2504 -1.8287,-2.7821 -1.8287,-4.5951 0,-2.0006 0.59393,-3.5479 1.7818,-4.642 1.2191,-1.1253 2.8602,-1.688 4.9233,-1.688 z"
     fill="#333333"
     id="path10"
     style="fill:#6e44ac;fill-opacity:1" />
</svg>
