<?xml version="1.0" encoding="utf-8"?>
<!-- Generator: Adobe Illustrator 22.1.0, SVG Export Plug-In . SVG Version: 6.00 Build 0)  -->
<svg version="1.1" id="Telegram" xmlns="http://www.w3.org/2000/svg" xmlns:xlink="http://www.w3.org/1999/xlink" x="0px" y="0px"
	 viewBox="0 0 5000 5000" style="enable-background:new 0 0 5000 5000;" xml:space="preserve">
<style type="text/css">
	.st0{fill:url(#Blue_BG_1_);}
	.st1{fill:#FFFFFF;}
</style>
<g>
	
		<linearGradient id="Blue_BG_1_" gradientUnits="userSpaceOnUse" x1="703.798" y1="2378.5361" x2="703.798" y2="2383.3411" gradientTransform="matrix(1000 0 0 1000 -701298 -2378458)">
		<stop  offset="0" style="stop-color:#2AABEE"/>
		<stop  offset="1" style="stop-color:#229ED9"/>
	</linearGradient>
	<circle id="Blue_BG" class="st0" cx="2500" cy="2500" r="2421.8"/>
	<path id="Plan" class="st1" d="M1173.2,2473.8c705.8-306.5,1175.6-510.2,1411.5-609c671.5-280.3,812.6-328.7,903.4-330.7
		c20.2,0,64.5,4,94.8,28.2c24.2,20.2,30.2,46.4,34.3,66.5c4,20.2,8.1,62.5,4,94.8c-36.3,383.1-193.6,1312.7-274.2,1740.2
		c-34.3,181.5-100.8,242-165.3,248c-141.2,12.1-248-92.8-383.1-181.5c-213.7-139.1-332.7-225.8-540.4-363
		c-240-157.3-84.7-244,52.4-385.1c36.3-36.3,655.3-600.9,667.4-651.3c2-6,2-30.2-12.1-42.3c-14.1-12.1-34.3-8.1-50.4-4
		c-22.2,4-360.9,229.9-1020.3,675.5c-96.8,66.5-183.5,98.8-262.1,96.8c-86.7-2-252.1-48.4-377.1-88.7
		c-151.2-48.4-272.2-74.6-262.1-159.3C999.8,2564.5,1060.3,2520.2,1173.2,2473.8z"/>
</g>
</svg>
